# xmcd
#
# Track frame offsets:
#	150
#	12583
#	24667
#	36693
#	57777
#	71792
#	80961
#	96457
#	107970
#	119881
#	131363
#	146639
#	159876
#	173130
#	190043
#
# Disc length: 2684 seconds
#
# Revision: 1
# Processed by: cddbd v1.5.1PL0 Copyright (c) Steve Scherf et al.
# Submitted via: audiograbber 1.83.01
#
DISCID=e20a7a0f
DTITLE=Mark Coonradt - Blue Country
DYEAR=2000
DGENRE=Country
TTITLE0=Folsom Prison
TTITLE1=Don´t Fence Me In
TTITLE2=The Preacher
TTITLE3=Chill Factor
TTITLE4=Coast To Coast
TTITLE5=High School
TTITLE6=Twinkle Twinkle
TTITLE7=Guitar Boogie
TTITLE8=Old Cowhand
TTITLE9=Unknown Stuntman
TTITLE10=Achey Heart
TTITLE11=Fighting Side Of Me
TTITLE12=Baby´s Got Her Blue Jeans On
TTITLE13=Tulsa Time
TTITLE14=Fever
EXTD=mit John Paiva
EXTT0=
EXTT1=
EXTT2=
EXTT3=
EXTT4=
EXTT5=
EXTT6=
EXTT7=
EXTT8=
EXTT9=
EXTT10=
EXTT11=
EXTT12=
EXTT13=
EXTT14=
PLAYORDER=
